<?xml version="1.0" standalone="no"?>
<!DOCTYPE svg PUBLIC "-//W3C//DTD SVG 20010904//EN"
 "http://www.w3.org/TR/2001/REC-SVG-20010904/DTD/svg10.dtd">
<svg version="1.0" xmlns="http://www.w3.org/2000/svg"
 width="569.000000pt" height="569.000000pt" viewBox="0 0 569.000000 569.000000"
 preserveAspectRatio="xMidYMid meet">
<metadata>
Created by potrace 1.14, written by Peter Selinger 2001-2017
</metadata>
<g transform="translate(0.000000,569.000000) scale(0.100000,-0.100000)"
fill="#000000" stroke="none">
<path d="M4070 4880 c-438 -68 -596 -77 -1535 -90 -704 -10 -788 -14 -1065
-44 -74 -8 -211 -18 -305 -22 -93 -4 -162 -10 -152 -13 12 -4 -7 -11 -52 -19
-203 -35 -278 -109 -317 -317 -14 -78 -16 -133 -10 -405 3 -173 11 -391 17
-485 16 -235 5 -711 -20 -928 -26 -219 -35 -373 -27 -431 8 -54 49 -107 106
-136 49 -25 280 -96 410 -126 58 -13 148 -27 200 -30 134 -9 611 13 798 36
223 28 405 26 570 -5 285 -53 405 -53 767 1 205 30 433 43 780 44 585 1 763
36 903 177 116 117 130 192 83 443 -37 198 -96 530 -110 620 -6 36 -20 171
-31 300 -11 129 -30 294 -41 365 -38 238 -116 501 -199 665 -91 181 -257 343
-405 395 -74 26 -217 28 -365 5z m365 -123 c119 -57 229 -175 304 -325 49 -97
120 -294 152 -419 42 -167 57 -260 89 -578 16 -159 36 -326 44 -370 141 -766
140 -758 107 -830 -24 -53 -109 -131 -175 -160 -109 -48 -180 -55 -661 -65
-574 -11 -617 -14 -875 -51 -301 -44 -459 -44 -700 -1 -204 37 -338 41 -545
17 -257 -31 -314 -34 -600 -40 -337 -8 -356 -5 -627 75 -206 61 -233 75 -247
126 -11 40 -2 201 24 424 8 69 20 233 26 365 12 248 3 541 -37 1151 -16 251
-9 355 30 440 39 85 95 123 248 167 80 23 92 24 160 14 93 -14 1650 -13 2089
2 318 11 483 25 754 65 88 13 207 25 265 25 100 1 109 -1 175 -32z"/>
<path d="M1342 4547 c-29 -30 -28 -62 3 -92 29 -30 55 -32 86 -7 47 39 16 122
-45 122 -13 0 -32 -10 -44 -23z"/>
<path d="M900 4520 c-41 -41 -13 -110 43 -110 38 0 50 7 65 37 34 63 -57 124
-108 73z"/>
<path d="M1117 4522 c-39 -42 -9 -112 46 -112 57 0 89 77 49 113 -25 22 -75
21 -95 -1z"/>
<path d="M3695 4390 c-263 -8 -471 -25 -755 -60 -349 -43 -480 -49 -990 -41
-277 4 -440 -5 -720 -40 -341 -43 -336 -47 65 -48 198 -1 446 -7 550 -13 105
-7 330 -12 500 -12 291 0 330 2 630 37 176 20 421 46 545 57 124 11 326 32
450 46 218 25 417 29 515 10 17 -4 5 3 -25 15 -137 51 -321 63 -765 49z"/>
<path d="M2100 3953 c-14 -2 -88 -12 -165 -23 -77 -11 -248 -24 -380 -30 -466
-20 -554 -33 -289 -44 93 -3 241 -11 329 -16 114 -7 202 -6 305 2 80 7 174 13
210 13 61 0 65 -2 78 -27 21 -44 66 -386 58 -439 -13 -84 -8 -82 -217 -79
-316 6 -356 4 -559 -30 -215 -36 -316 -41 -371 -17 -41 17 -41 16 -59 212 -5
61 -19 155 -29 210 -11 55 -22 111 -24 125 -6 32 2 -416 8 -493 6 -73 16 -92
65 -117 86 -44 257 -49 459 -13 76 13 162 17 416 17 365 1 360 0 397 83 29 65
33 141 14 273 -35 240 -67 341 -118 373 -25 16 -87 25 -128 20z"/>
<path d="M3395 3909 c-110 -9 -357 -52 -332 -57 29 -6 567 17 653 28 45 6 112
16 150 24 67 13 61 14 -156 13 -124 0 -265 -3 -315 -8z"/>
<path d="M3347 3644 c-119 -7 -223 -14 -229 -16 -23 -8 246 -28 367 -28 66 0
170 7 230 16 61 8 142 18 180 21 56 6 64 8 40 14 -48 11 -351 7 -588 -7z"/>
<path d="M3720 3399 c-112 -8 -520 -55 -545 -63 -29 -10 149 -18 275 -13 140
6 378 40 485 71 l50 14 -70 0 c-38 -1 -126 -5 -195 -9z"/>
<path d="M3235 3013 c-22 -2 -132 -15 -245 -29 -175 -23 -254 -27 -540 -30
-377 -4 -405 -5 -690 -40 -232 -28 -393 -55 -495 -84 l-70 -20 55 5 c30 3 102
10 160 16 60 7 378 13 745 14 669 4 656 3 1050 55 83 11 263 24 400 30 448 18
750 46 530 49 -49 1 -200 10 -335 21 -220 18 -455 23 -565 13z"/>
<path d="M3865 2733 c-22 -2 -139 -17 -260 -33 -309 -41 -406 -49 -776 -60
-179 -5 -478 -18 -665 -29 -186 -11 -427 -25 -534 -30 -107 -6 -219 -16 -249
-23 -52 -12 -48 -13 90 -13 79 0 243 -6 364 -14 163 -10 335 -12 665 -7 655
10 742 19 1150 115 230 55 293 68 415 90 43 8 36 9 -55 8 -58 0 -123 -2 -145
-4z"/>
<path d="M3737 2394 c-148 -6 -328 -17 -400 -23 -73 -6 -346 -20 -607 -31
-677 -28 -870 -39 -995 -55 -162 -22 -190 -34 -65 -28 58 3 186 0 285 -6 509
-31 643 -34 883 -23 278 14 380 26 785 92 358 58 521 93 416 89 -19 -1 -155
-8 -302 -15z"/>
<path d="M2548 1830 c-12 -87 -10 -189 8 -415 l18 -210 -63 -187 c-34 -103
-61 -198 -59 -210 5 -40 59 -58 173 -58 55 1 129 5 165 10 152 20 342 41 595
65 149 14 282 31 297 36 46 18 48 70 6 154 -20 38 -237 269 -246 261 -2 -3 29
-49 70 -103 116 -154 154 -227 125 -245 -6 -4 -68 -8 -137 -8 -231 0 -488 -20
-655 -50 -88 -15 -198 -32 -244 -36 -79 -6 -83 -6 -78 12 7 22 42 198 52 264
l8 44 20 -43 c16 -34 30 -48 66 -64 39 -17 58 -19 151 -14 251 15 449 36 478
51 44 22 98 91 124 155 22 53 23 69 22 311 0 161 -4 262 -11 274 -8 14 -12 -7
-17 -95 -9 -132 -32 -324 -48 -389 -14 -59 -50 -130 -78 -155 -19 -17 -47 -22
-199 -32 -398 -28 -384 -28 -404 -6 -27 30 -121 531 -129 688 l-3 50 -7 -55z"/>
</g>
</svg>
